<svg xmlns="http://www.w3.org/2000/svg" viewBox="0 0 512 512" width="512" height="512" role="img" aria-label="MANA app icon — 3D, dark tile, slim drop"><title>MANA app icon — 3D, dark tile, slim drop</title><defs><linearGradient id="id-bg" x1="0.2" y1="0" x2="0.8" y2="1"><stop offset="0" stop-color="#0F5283"/><stop offset="0.5" stop-color="#073556"/><stop offset="1" stop-color="#031A2E"/></linearGradient><radialGradient id="id-glow" cx="0.5" cy="0.55" r="0.55"><stop offset="0" stop-color="#38BDF8" stop-opacity="0.42"/><stop offset="1" stop-color="#38BDF8" stop-opacity="0"/></radialGradient><radialGradient id="id-sheen" cx="0.5" cy="0" r="0.8"><stop offset="0" stop-color="#FFFFFF" stop-opacity="0.22"/><stop offset="1" stop-color="#FFFFFF" stop-opacity="0"/></radialGradient><linearGradient id="id-face" x1="0.2" y1="0" x2="0.8" y2="1"><stop offset="0" stop-color="#8EDBFD"/><stop offset="0.45" stop-color="#13A8EC"/><stop offset="1" stop-color="#0369A1"/></linearGradient><linearGradient id="id-bounce" x1="0" y1="0" x2="0" y2="1"><stop offset="0.5" stop-color="#5EEAD4" stop-opacity="0"/><stop offset="1" stop-color="#5EEAD4" stop-opacity="0.4"/></linearGradient><radialGradient id="id-gloss" cx="0.3" cy="0.22" r="0.5"><stop offset="0" stop-color="#FFFFFF" stop-opacity="0.85"/><stop offset="1" stop-color="#FFFFFF" stop-opacity="0"/></radialGradient><linearGradient id="id-side" x1="0" y1="0" x2="0" y2="1"><stop offset="0" stop-color="#0B6BA3"/><stop offset="1" stop-color="#04304C"/></linearGradient><linearGradient id="id-rim" x1="0" y1="0" x2="0" y2="1"><stop offset="0" stop-color="#FFFFFF"/><stop offset="1" stop-color="#BAE6FD"/></linearGradient><linearGradient id="id-edge" x1="0.1" y1="0" x2="0.9" y2="1"><stop offset="0" stop-color="#FFFFFF" stop-opacity="0.9"/><stop offset="0.5" stop-color="#FFFFFF" stop-opacity="0.12"/><stop offset="1" stop-color="#FFFFFF" stop-opacity="0"/></linearGradient><filter id="id-b14" x="-40%" y="-40%" width="180%" height="180%"><feGaussianBlur stdDeviation="13"/></filter><filter id="id-b3" x="-40%" y="-40%" width="180%" height="180%"><feGaussianBlur stdDeviation="3"/></filter><mask id="id-cut" maskUnits="userSpaceOnUse" x="-20" y="-20" width="300" height="300"><rect x="-20" y="-20" width="300" height="300" fill="#fff"/><path d="M128 56C128 56 118 128 118 166A10 10 0 0 0 138 166C138 128 128 56 128 56Z" fill="#000"/></mask><mask id="id-sidem" maskUnits="userSpaceOnUse" x="-20" y="-20" width="300" height="300"><path d="M128 22C128 22 212 104 212 166A84 84 0 0 1 44 166C44 104 128 22 128 22Z" fill="#fff"/></mask></defs><rect width="512" height="512" fill="url(#id-bg)"/><rect width="512" height="512" fill="url(#id-glow)"/><rect width="512" height="512" fill="url(#id-sheen)"/><g transform="translate(89.6 84) scale(1.3)"><path d="M128 14C128 14 212 96 212 158A84 84 0 0 1 44 158C44 96 128 14 128 14Z" fill="#38BDF8" fill-opacity="0.55" transform="translate(0 6)" filter="url(#id-b14)"/><path d="M128 14C128 14 212 96 212 158A84 84 0 0 1 44 158C44 96 128 14 128 14Z" fill="#021827" fill-opacity="0.55" transform="translate(0 11)" filter="url(#id-b3)"/><path d="M128 14C128 14 212 96 212 158A84 84 0 0 1 44 158C44 96 128 14 128 14Z" fill="url(#id-side)" transform="translate(0 8)"/><g mask="url(#id-sidem)"><path d="M128 56C128 56 118 128 118 166A10 10 0 0 0 138 166C138 128 128 56 128 56Z" fill="#01121F" fill-opacity="0.65"/></g><g mask="url(#id-cut)"><path d="M128 14C128 14 212 96 212 158A84 84 0 0 1 44 158C44 96 128 14 128 14Z" fill="url(#id-face)"/><path d="M128 14C128 14 212 96 212 158A84 84 0 0 1 44 158C44 96 128 14 128 14Z" fill="url(#id-bounce)"/><path d="M128 14C128 14 212 96 212 158A84 84 0 0 1 44 158C44 96 128 14 128 14Z" fill="url(#id-gloss)"/></g><path d="M80.37 80C63.69 104.42 49.04 133.01 49.04 158.12A78.96 78.96 0 0 0 206.96 158.12C206.96 133.01 192.31 104.42 175.63 80L175.63 80C168.96 101.53 189.32 132.46 189.32 158.54A61.32 61.32 0 0 1 66.68 158.54C66.68 132.46 87.04 101.53 80.37 80Z" fill="url(#id-rim)" fill-opacity="0.96"/><path d="M128 14C128 14 212 96 212 158A84 84 0 0 1 44 158C44 96 128 14 128 14Z" fill="none" stroke="url(#id-edge)" stroke-width="2.2" mask="url(#id-cut)"/></g></svg>
