<svg xmlns="http://www.w3.org/2000/svg" viewBox="0 0 512 512" width="512" height="512" role="img" aria-label="MANA app icon"><title>MANA app icon — Liquid glass</title><defs><linearGradient id="s6-bg" x1="0.1" y1="0" x2="0.9" y2="1"><stop offset="0" stop-color="#93A5F2"/><stop offset="0.5" stop-color="#4257C8"/><stop offset="1" stop-color="#1C2670"/></linearGradient><radialGradient id="s6-o1" cx="0.5" cy="0.5" r="0.5"><stop offset="0" stop-color="#EAEEFF" stop-opacity="0.7"/><stop offset="1" stop-color="#EAEEFF" stop-opacity="0"/></radialGradient><radialGradient id="s6-o2" cx="0.5" cy="0.5" r="0.5"><stop offset="0" stop-color="#080E2B" stop-opacity="0.6"/><stop offset="1" stop-color="#080E2B" stop-opacity="0"/></radialGradient><radialGradient id="s6-o3" cx="0.5" cy="0.5" r="0.5"><stop offset="0" stop-color="#9BAEF5" stop-opacity="0.55"/><stop offset="1" stop-color="#9BAEF5" stop-opacity="0"/></radialGradient><linearGradient id="s6-glass" x1="0.2" y1="0" x2="0.8" y2="1"><stop offset="0" stop-color="#FFFFFF" stop-opacity="0.5"/><stop offset="0.5" stop-color="#FFFFFF" stop-opacity="0.18"/><stop offset="1" stop-color="#C4CCF0" stop-opacity="0.34"/></linearGradient><linearGradient id="s6-edge" x1="0.1" y1="0" x2="0.9" y2="1"><stop offset="0" stop-color="#FFFFFF" stop-opacity="0.98"/><stop offset="0.55" stop-color="#FFFFFF" stop-opacity="0.35"/><stop offset="1" stop-color="#FFFFFF" stop-opacity="0.12"/></linearGradient><linearGradient id="s6-rim" x1="0" y1="0" x2="0" y2="1"><stop offset="0" stop-color="#FFFFFF" stop-opacity="0.97"/><stop offset="1" stop-color="#E4E9FF" stop-opacity="0.6"/></linearGradient><radialGradient id="s6-spec" cx="0.5" cy="0.5" r="0.5"><stop offset="0" stop-color="#FFFFFF" stop-opacity="0.85"/><stop offset="1" stop-color="#FFFFFF" stop-opacity="0"/></radialGradient><filter id="s6-b12" x="-50%" y="-50%" width="200%" height="200%"><feGaussianBlur stdDeviation="11"/></filter><mask id="s6-cut" maskUnits="userSpaceOnUse" x="-20" y="-20" width="300" height="300"><rect x="-20" y="-20" width="300" height="300" fill="#fff"/><path d="M128 56C128 56 118 128 118 166A10 10 0 0 0 138 166C138 128 128 56 128 56Z" fill="#000"/></mask></defs><rect width="512" height="512" fill="url(#s6-bg)"/><circle cx="150" cy="110" r="190" fill="url(#s6-o1)"/><circle cx="430" cy="460" r="230" fill="url(#s6-o2)"/><circle cx="440" cy="120" r="120" fill="url(#s6-o3)"/><g transform="translate(89.6 80) scale(1.3)"><path d="M128 14C128 14 212 96 212 158A84 84 0 0 1 44 158C44 96 128 14 128 14Z" fill="#080E2B" fill-opacity="0.38" transform="translate(0 20)" filter="url(#s6-b12)"/><g mask="url(#s6-cut)"><path d="M128 14C128 14 212 96 212 158A84 84 0 0 1 44 158C44 96 128 14 128 14Z" fill="url(#s6-glass)"/></g><path d="M80.37 80C63.69 104.42 49.04 133.01 49.04 158.12A78.96 78.96 0 0 0 206.96 158.12C206.96 133.01 192.31 104.42 175.63 80L175.63 80C168.96 101.53 189.32 132.46 189.32 158.54A61.32 61.32 0 0 1 66.68 158.54C66.68 132.46 87.04 101.53 80.37 80Z" fill="url(#s6-rim)"/><path d="M128 56C128 56 118 128 118 166A10 10 0 0 0 138 166C138 128 128 56 128 56Z" fill="none" stroke="#fff" stroke-opacity="0.6" stroke-width="1.3"/><path d="M128 14C128 14 212 96 212 158A84 84 0 0 1 44 158C44 96 128 14 128 14Z" fill="none" stroke="url(#s6-edge)" stroke-width="3"/><ellipse cx="88" cy="86" rx="22" ry="7" fill="url(#s6-spec)" transform="rotate(-52 88 86)"/></g></svg>
